<svg width="27" height="27" viewBox="0 0 27 27" fill="none" xmlns="http://www.w3.org/2000/svg">
<path d="M11.9622 0C18.5653 0 23.9244 5.35906 23.9244 11.9622C23.9244 18.5653 18.5653 23.9244 11.9622 23.9244C5.35906 23.9244 0 18.5653 0 11.9622C0 5.35906 5.35906 0 11.9622 0ZM11.9622 21.2661C17.1019 21.2661 21.2661 17.1019 21.2661 11.9622C21.2661 6.82111 17.1019 2.65827 11.9622 2.65827C6.82111 2.65827 2.65827 6.82111 2.65827 11.9622C2.65827 17.1019 6.82111 21.2661 11.9622 21.2661ZM23.2399 21.3605L27 25.1193L25.1193 27L21.3605 23.2399L23.2399 21.3605Z" fill="#ADADAD"/>
</svg>
